# xmcd
# 
# Track frame offsets:
#     150
#     12587
#     25910
#     38892
#     49332
#     61787
#     75235
#     88230
#     99882
#     113665
#     126605
#     138695
#     150772
#     162297
#     173165
#     187437
#     200900
#     212660
# 
# Disc length: 3018
# 
# Revision: 2
# Processed by: cddbd v1.5.2PL0 Copyright (c) Steve Scherf et al.
# Submitted via: BonkEnc v1.0beta4
# 
DISCID=fa0bc812
DTITLE=The Temptations - 18 Original Hot Hits
DYEAR=1994
DGENRE=R&B
TTITLE0=The Way You Do the Things You Do
TTITLE1=I'll Be In Trouble
TTITLE2=The Girl's Alright With Me
TTITLE3=Girl (Why You Wanna Make Me Blue)
TTITLE4=My Girl
TTITLE5=It's Growing
TTITLE6=Since I Lost My Baby
TTITLE7=You've Got To Earn It
TTITLE8=My Baby
TTITLE9=Don't Look Back
TTITLE10=Too Busy Thinking About My Baby
TTITLE11=Get Ready
TTITLE12=Ain't Too Proud To Beg
TTITLE13=Beauty Is Only Skin Deep
TTITLE14=All I Need
TTITLE15=You're My Everything
TTITLE16=(Loneliness Made Me Realize) It's You That I Need
TTITLE17=Try To Remember
EXTD=
EXTT0=
EXTT1=
EXTT2=
EXTT3=
EXTT4=
EXTT5=
EXTT6=
EXTT7=
EXTT8=
EXTT9=
EXTT10=
EXTT11=
EXTT12=
EXTT13=
EXTT14=
EXTT15=
EXTT16=
EXTT17=
PLAYORDER=
